<svg id="Layer_1" data-name="Layer 1" xmlns="http://www.w3.org/2000/svg" viewBox="0 0 32 32"><defs><style>.cls-1{fill:#2f0007;}.cls-2{fill:#fff;}</style></defs><title>102565_VECTOR_DT_R_01</title><rect class="cls-1" y="7.8" width="32" height="16.36" rx="8.2"/><rect class="cls-2" x="1.7" y="9.5" width="28.6" height="13.03" rx="6.5"/><path class="cls-1" d="M7.4,11.6h0A1.4,1.4,0,0,1,8.8,13v5.7a1.4,1.4,0,0,1-1.4,1.4h0a1.3,1.3,0,0,1-1.3-1.4V13A1.3,1.3,0,0,1,7.4,11.6Z"/><path class="cls-1" d="M11.8,15.8h0a1.4,1.4,0,0,1-1.4,1.4H4.7a1.4,1.4,0,0,1-1.4-1.4h0a1.3,1.3,0,0,1,1.4-1.3h5.7A1.3,1.3,0,0,1,11.8,15.8Z"/><circle class="cls-1" cx="20.7" cy="16" r="1.7"/><circle class="cls-1" cx="23.8" cy="12.8" r="1.7"/><circle class="cls-1" cx="23.8" cy="19.2" r="1.7"/><circle class="cls-1" cx="27.1" cy="16" r="1.7"/><ellipse class="cls-1" cx="14" cy="17.9" rx="1" ry="0.9"/><ellipse class="cls-1" cx="17" cy="17.9" rx="1" ry="0.9"/></svg>